# xmcd
#
# Track frame offsets:
# 150
# 13115
# 22770
# 48515
# 62107
# 89710
# 115431
# 128392
#
# Disc length: 2127 seconds
#
#
# Revision: 0
# Processed by: cddbd v1.5.1PL0 Copyright (c) Steve Scherf et al.
# Submitted via: FreeRIP 2.91 
#
DISCID=63084d08
DTITLE=Mr. Bungle - Raging Wrath Of the Easter Bunny
DYEAR=1900
DGENRE=Avantgarde
TTITLE0=Grizzly Adams
TTITLE1=Anarchy Up Your Anus
TTITLE2=Spreading the Thighs of Death
TTITLE3=Hypocrites
TTITLE4=Bungle Grind
TTITLE5=Raping Your Mind
TTITLE6=Evil Satan
TTITLE7=Sudden Death
EXTD=
EXTT0=
EXTT1=
EXTT2=
EXTT3=
EXTT4=
EXTT5=
EXTT6=
EXTT7=
PLAYORDER=
